<?xml version="1.0" encoding="utf-8"?>
<!-- Generator: Adobe Illustrator 16.0.0, SVG Export Plug-In . SVG Version: 6.00 Build 0)  -->
<!DOCTYPE svg PUBLIC "-//W3C//DTD SVG 1.1//EN" "http://www.w3.org/Graphics/SVG/1.1/DTD/svg11.dtd">
<svg version="1.1" id="Layer_1" xmlns="http://www.w3.org/2000/svg" xmlns:xlink="http://www.w3.org/1999/xlink" x="0px" y="0px"
	 width="100px" height="100px" viewBox="0 0 100 100" enable-background="new 0 0 100 100" xml:space="preserve">
<g>
	<path fill="#12515A" d="M68.273,56.875c-2.677,0-5.299-0.418-7.784-1.238c-1.213-0.418-2.591-0.096-3.388,0.717l-4.927,3.723
		c-5.653-3.018-9.271-6.635-12.248-12.246l3.62-4.811c0.911-0.912,1.238-2.246,0.848-3.494c-0.827-2.502-1.247-5.127-1.247-7.799
		c0-1.889-1.537-3.426-3.427-3.426h-7.994c-1.89,0-3.427,1.537-3.427,3.426c0,22.041,17.934,39.973,39.974,39.973
		c1.89,0,3.426-1.535,3.426-3.426v-7.973C71.7,58.414,70.163,56.875,68.273,56.875z"/>
	<g>
		<path fill="#12515A" d="M50,87c-20.402,0-37-16.598-37-37s16.598-37,37-37s37,16.598,37,37S70.402,87,50,87z M50,17
			c-18.196,0-33,14.803-33,33s14.804,33,33,33s33-14.803,33-33S68.196,17,50,17z"/>
	</g>
</g>
</svg>
