<?xml version="1.0" encoding="utf-8"?>
<!-- Generator: Adobe Illustrator 16.0.0, SVG Export Plug-In . SVG Version: 6.00 Build 0)  -->
<!DOCTYPE svg PUBLIC "-//W3C//DTD SVG 1.1//EN" "http://www.w3.org/Graphics/SVG/1.1/DTD/svg11.dtd">
<svg version="1.1" id="Layer_1" xmlns="http://www.w3.org/2000/svg" xmlns:xlink="http://www.w3.org/1999/xlink" x="0px" y="0px"
	 width="100px" height="100px" viewBox="0 0 100 100" enable-background="new 0 0 100 100" xml:space="preserve">
<path fill="#12515A" d="M49.995,15c-14.554,0-26.401,11.848-26.401,26.41c0,20.958,23.567,42.017,24.575,42.908
	C48.689,84.777,49.348,85,49.995,85c0.685,0,1.359-0.241,1.889-0.736c0.999-0.936,24.523-23.154,24.523-42.854
	C76.406,26.848,64.559,15,49.995,15z M49.995,53.996c-6.954,0-12.585-5.643-12.585-12.586c0-6.954,5.631-12.594,12.585-12.594
	c6.952,0,12.595,5.64,12.595,12.594C62.59,48.363,56.947,53.996,49.995,53.996z"/>
</svg>
