<?xml version="1.0" encoding="utf-8"?>
<!-- Generator: Adobe Illustrator 16.0.0, SVG Export Plug-In . SVG Version: 6.00 Build 0)  -->
<!DOCTYPE svg PUBLIC "-//W3C//DTD SVG 1.1//EN" "http://www.w3.org/Graphics/SVG/1.1/DTD/svg11.dtd">
<svg version="1.1" id="Layer_1" xmlns="http://www.w3.org/2000/svg" xmlns:xlink="http://www.w3.org/1999/xlink" x="0px" y="0px"
	 width="100px" height="100px" viewBox="0 0 100 100" enable-background="new 0 0 100 100" xml:space="preserve">
<g>
	<path fill="#12515A" d="M84.493,66.134V30.228c0-0.155-0.016-0.307-0.041-0.455L60.201,49.967L84.493,66.134z"/>
	<path fill="#12515A" d="M58.014,51.787l-3.058,2.545C53.52,55.529,51.76,56.127,50,56.127s-3.521-0.598-4.957-1.795l-3.057-2.545
		L15.506,69.41v0.363c0,1.503,1.224,2.727,2.728,2.727h63.531c1.504,0,2.728-1.224,2.728-2.727V69.41L58.014,51.787z"/>
	<path fill="#12515A" d="M81.765,27.5H18.234h-0.011c-0.385,0.002-0.551,0.492-0.256,0.738l24.965,20.789
		c0.003,0.002,0.006,0.004,0.01,0.008l3.846,3.201c1.861,1.551,4.563,1.551,6.424,0l28.82-23.998
		c0.296-0.246,0.129-0.736-0.256-0.738H81.765z"/>
	<path fill="#12515A" d="M39.798,49.967L15.547,29.772c-0.025,0.148-0.041,0.3-0.041,0.455v35.906L39.798,49.967z"/>
</g>
</svg>
