<?xml version="1.0" encoding="utf-8"?>
<!-- Generator: Adobe Illustrator 16.0.0, SVG Export Plug-In . SVG Version: 6.00 Build 0)  -->
<!DOCTYPE svg PUBLIC "-//W3C//DTD SVG 1.1//EN" "http://www.w3.org/Graphics/SVG/1.1/DTD/svg11.dtd">
<svg version="1.1" id="Layer_1" xmlns="http://www.w3.org/2000/svg" xmlns:xlink="http://www.w3.org/1999/xlink" x="0px" y="0px"
	 width="100px" height="100px" viewBox="0 0 100 100" enable-background="new 0 0 100 100" xml:space="preserve">
<path fill-rule="evenodd" clip-rule="evenodd" fill="#12515A" d="M50.455,10H49.52C27.383,10.254,9.535,27.861,9.332,49.645v0.711
	C9.535,72.277,27.651,90,49.971,90c22.483,0,40.697-17.918,40.697-40.002C90.668,28.045,72.689,10.254,50.455,10z M64.637,33.088
	h-5.29c-4.178,0-5.002,1.996-5.002,4.867v6.369h9.938l-1.29,10.008h-8.648v25.633H44V54.332h-8.675V44.324H44v-7.375
	c0-8.537,5.251-13.191,12.911-13.191c3.666,0,6.822,0.268,7.726,0.396V33.088z"/>
</svg>
