<?xml version="1.0" encoding="utf-8"?>
<!-- Generator: Adobe Illustrator 16.0.0, SVG Export Plug-In . SVG Version: 6.00 Build 0)  -->
<!DOCTYPE svg PUBLIC "-//W3C//DTD SVG 1.1//EN" "http://www.w3.org/Graphics/SVG/1.1/DTD/svg11.dtd">
<svg version="1.1" id="Layer_1" xmlns="http://www.w3.org/2000/svg" xmlns:xlink="http://www.w3.org/1999/xlink" x="0px" y="0px"
	 width="152px" height="150px" viewBox="0 0 152 150" enable-background="new 0 0 152 150" xml:space="preserve">
<g>
	<path fill="#ED6F71" d="M73.309,90.242c1.515,0.625,3.212,0.639,4.736,0.041c5.005-1.967,16.295-6.412,17.78-7.082
		c0.04-0.016,0.076-0.033,0.115-0.051h-0.003c7.291-3.301,16.193-7.877,25.186-13.844c20.069-13.318,14.221-41.525,11.377-54.039
		c-2.845-12.516-9.719-13.41-8.582-3.172c1.138,10.238,6.754,26.395-3.206,37.635c-5.537,6.248-10.398,8.199-7.554-2.609
		c2.844-10.807,0.728-17.301-2.845-15.357c-2.367,1.287-2.998,4.66-3.771,6.99c-1.556,4.699-3.65,9.09-6.7,13.018
		c-1.727,2.225-3.621,4.336-5.794,6.135c-1.992,1.648-4.38,2.713-6.438,4.313c-4.095,3.182-7.437,7.301-9.705,11.963
		c-0.207,0.424-0.404,0.852-0.593,1.283l-1.684,3.857l-2.42-5.449c-2.854-6.426-7.729-11.674-13.734-15.334
		c-2.016-1.229-3.859-2.73-5.431-4.494c-9.911-11.119-8.128-19.979-12.361-22.281c-3.572-1.943-5.688,4.551-2.844,15.357
		c2.844,10.809-2.017,8.857-7.554,2.609c-9.959-11.24-4.344-27.396-3.206-37.635c1.137-10.238-5.736-9.344-8.581,3.172
		c-2.844,12.514-8.693,40.721,11.377,54.039c8.992,5.967,17.894,10.543,25.185,13.844H56.06L73.309,90.242z"/>
	<path fill="#ED6F71" d="M14.563,31.094c1.517-14.602,4.118-24.367,1.76-25.029c-0.875-0.246-4.13-0.984-6.785,6.541
		c-2.116,5.998-6.542,31.004,8.817,43.518C18.355,56.123,13.045,45.695,14.563,31.094"/>
	<path fill="#ED6F71" d="M142.463,12.605c-2.654-7.525-5.91-6.787-6.785-6.541c-2.357,0.662,0.243,10.428,1.76,25.029
		c1.518,14.602-3.792,25.029-3.792,25.029C149.005,43.609,144.578,18.604,142.463,12.605"/>
	<path fill="#F08C8F" d="M75.664,56.061c-4.906-5.701-11.567-9.918-17.654-14.814c-4.314-3.473-7.928-7.486-9.615-12.879
		c-1.84-5.879-1.128-11.479,2.495-16.516c4.995-6.945,14.413-7.859,20.604-2.012c1.644,1.551,3.002,3.406,4.633,5.285
		c0.263-0.385,0.595-0.885,0.938-1.375c2.367-3.381,5.214-6.211,9.31-7.342c6.422-1.771,13.978,2.221,16.642,8.832
		c3.147,7.813,1.428,14.939-3.992,20.996c-3.049,3.408-6.871,6.133-10.398,9.102C84.386,48.904,80.09,52.404,75.664,56.061"/>
	<path fill="#12515A" d="M14.411,98.441c3.611,0,6.223,1.215,8.654,3.326c0.322,0.287,0.322,0.715,0.036,1.002l-1.573,1.607
		c-0.25,0.322-0.573,0.322-0.894,0c-1.681-1.467-3.97-2.395-6.188-2.395c-5.114,0-8.976,4.291-8.976,9.297
		c0,5.008,3.897,9.264,9.012,9.264c2.61,0,4.435-1.037,6.151-2.359c0.321-0.252,0.644-0.215,0.858-0.037l1.646,1.609
		c0.286,0.25,0.214,0.715-0.036,0.965c-2.433,2.361-5.507,3.471-8.69,3.471c-7.153,0-12.911-5.688-12.911-12.84
		S7.258,98.441,14.411,98.441"/>
	<path fill="#12515A" d="M28.219,99.479c0-0.357,0.321-0.68,0.679-0.68h2.361c0.393,0,0.679,0.322,0.679,0.68v9.979h13.089v-9.979
		c0-0.357,0.286-0.68,0.679-0.68h2.361c0.357,0,0.679,0.322,0.679,0.68v23.676c0,0.355-0.321,0.678-0.679,0.678h-2.361
		c-0.393,0-0.679-0.322-0.679-0.678v-10.336H31.938v10.336c0,0.355-0.286,0.678-0.679,0.678h-2.361
		c-0.357,0-0.679-0.322-0.679-0.678V99.479z"/>
	<path fill="#12515A" d="M55.688,99.479c0-0.357,0.322-0.68,0.68-0.68h2.36c0.357,0,0.68,0.322,0.68,0.68v23.676
		c0,0.355-0.322,0.678-0.68,0.678h-2.36c-0.357,0-0.68-0.322-0.68-0.678V99.479z"/>
	<path fill="#12515A" d="M66.347,99.479c0-0.357,0.285-0.68,0.679-0.68h8.011c4.327,0,7.439,2.861,7.439,6.615
		c0,2.756-2.038,4.723-3.72,5.688c1.896,0.787,4.471,2.539,4.471,5.828c0,4.006-3.29,6.902-7.797,6.902h-8.404
		c-0.394,0-0.679-0.322-0.679-0.678V99.479z M75.395,120.543c2.181,0,3.861-1.682,3.861-3.898c0-2.182-2.073-3.756-4.398-3.756
		h-4.899v7.654H75.395z M74.822,109.672c2.289,0,3.684-1.682,3.684-3.828c0-2.182-1.395-3.684-3.684-3.684h-4.828v7.512H74.822z"/>
	<path fill="#12515A" d="M88.594,99.479c0-0.357,0.286-0.68,0.68-0.68h8.011c4.327,0,7.438,2.861,7.438,6.615
		c0,2.756-2.038,4.723-3.72,5.688c1.896,0.787,4.471,2.539,4.471,5.828c0,4.006-3.289,6.902-7.796,6.902h-8.404
		c-0.394,0-0.68-0.322-0.68-0.678V99.479z M97.642,120.543c2.182,0,3.862-1.682,3.862-3.898c0-2.182-2.074-3.756-4.398-3.756h-4.899
		v7.654H97.642z M97.069,109.672c2.289,0,3.684-1.682,3.684-3.828c0-2.182-1.395-3.684-3.684-3.684h-4.828v7.512H97.069z"/>
	<path fill="#12515A" d="M110.841,99.479c0-0.357,0.286-0.68,0.68-0.68h14.305c0.394,0,0.68,0.322,0.68,0.68v2.002
		c0,0.357-0.286,0.68-0.68,0.68h-11.301v7.297h9.549c0.357,0,0.68,0.32,0.68,0.68v2.002c0,0.393-0.322,0.68-0.68,0.68h-9.549v7.689
		h11.301c0.394,0,0.68,0.32,0.68,0.678v1.969c0,0.355-0.286,0.678-0.68,0.678h-14.305c-0.394,0-0.68-0.322-0.68-0.678V99.479z"/>
	<path fill="#12515A" d="M131.908,99.479c0-0.357,0.285-0.68,0.679-0.68h9.729c4.291,0,7.796,3.396,7.796,7.654
		c0,3.289-2.182,6.008-5.293,7.26l4.899,9.082c0.25,0.467,0,1.037-0.608,1.037h-2.789c-0.286,0-0.501-0.178-0.572-0.322
		l-4.757-9.475h-5.399v9.119c0,0.355-0.322,0.678-0.68,0.678h-2.325c-0.394,0-0.679-0.322-0.679-0.678V99.479z M142.028,110.959
		c2.325,0,4.364-1.967,4.364-4.436c0-2.324-2.039-4.256-4.364-4.256h-6.365v8.691H142.028z"/>
	<path fill="#12515A" d="M4.004,129.094c0-0.229,0.183-0.436,0.435-0.436h9.023c0.252,0,0.435,0.207,0.435,0.436v0.664
		c0,0.229-0.183,0.434-0.435,0.434H5.767v6.277h6.573c0.229,0,0.435,0.205,0.435,0.434v0.664c0,0.229-0.206,0.436-0.435,0.436H5.767
		v6.252c0,0.23-0.206,0.436-0.435,0.436H4.439c-0.252,0-0.435-0.205-0.435-0.436V129.094z"/>
	<path fill="#12515A" d="M24.085,128.43c4.58,0,8.245,3.688,8.245,8.266c0,4.582-3.665,8.223-8.245,8.223
		c-4.581,0-8.221-3.641-8.221-8.223C15.864,132.117,19.505,128.43,24.085,128.43 M24.085,143.316c3.641,0,6.641-2.979,6.641-6.621
		c0-3.639-3-6.662-6.641-6.662c-3.642,0-6.618,3.023-6.618,6.662C17.467,140.338,20.444,143.316,24.085,143.316"/>
	<path fill="#12515A" d="M35.624,129.094c0-0.229,0.206-0.436,0.436-0.436h0.87c0.252,0,0.435,0.207,0.435,0.436v9.549
		c0,2.611,1.627,4.65,4.306,4.65c2.702,0,4.351-1.992,4.351-4.604v-9.596c0-0.229,0.184-0.436,0.436-0.436h0.87
		c0.229,0,0.436,0.207,0.436,0.436v9.688c0,3.48-2.474,6.137-6.092,6.137c-3.596,0-6.046-2.656-6.046-6.137V129.094z"/>
	<path fill="#12515A" d="M52.225,128.842c0-0.229,0.206-0.412,0.436-0.412h0.572l10.328,12.871h0.046v-12.207
		c0-0.229,0.183-0.436,0.436-0.436h0.801c0.229,0,0.436,0.207,0.436,0.436v15.412c0,0.23-0.207,0.412-0.436,0.412h-0.412
		l-10.512-13.123h-0.022v12.459c0,0.23-0.184,0.436-0.436,0.436H52.66c-0.229,0-0.436-0.205-0.436-0.436V128.842z"/>
	<path fill="#12515A" d="M69.946,129.094c0-0.23,0.183-0.436,0.412-0.436h5.13c4.42,0,8.038,3.596,8.038,7.992
		c0,4.443-3.618,8.039-8.038,8.039h-5.13c-0.229,0-0.412-0.207-0.412-0.436V129.094z M75.122,143.109c3.755,0,6.48-2.68,6.48-6.459
		c0-3.756-2.726-6.434-6.48-6.434h-3.436v12.893H75.122z"/>
	<path fill="#12515A" d="M84.761,144.094l6.961-15.412c0.069-0.139,0.184-0.252,0.39-0.252h0.229c0.206,0,0.319,0.113,0.39,0.252
		l6.916,15.412c0.137,0.297-0.047,0.596-0.391,0.596h-0.915c-0.206,0-0.344-0.137-0.39-0.252l-1.694-3.779h-8.13l-1.672,3.779
		c-0.046,0.115-0.184,0.252-0.39,0.252h-0.916C84.806,144.689,84.623,144.391,84.761,144.094 M95.639,139.238
		c-1.123-2.496-2.222-5.016-3.344-7.512h-0.184l-3.344,7.512H95.639z"/>
	<path fill="#12515A" d="M103.514,130.191h-3.985c-0.251,0-0.435-0.205-0.435-0.434v-0.664c0-0.229,0.184-0.436,0.435-0.436h9.711
		c0.251,0,0.435,0.207,0.435,0.436v0.664c0,0.229-0.184,0.434-0.435,0.434h-3.985v14.063c0,0.23-0.206,0.436-0.436,0.436h-0.87
		c-0.229,0-0.435-0.205-0.435-0.436V130.191z"/>
	<path fill="#12515A" d="M112.191,129.094c0-0.229,0.206-0.436,0.435-0.436h0.917c0.229,0,0.435,0.207,0.435,0.436v15.16
		c0,0.23-0.206,0.436-0.435,0.436h-0.917c-0.229,0-0.435-0.205-0.435-0.436V129.094z"/>
	<path fill="#12515A" d="M125.701,128.43c4.58,0,8.245,3.688,8.245,8.266c0,4.582-3.665,8.223-8.245,8.223s-8.221-3.641-8.221-8.223
		C117.48,132.117,121.121,128.43,125.701,128.43 M125.701,143.316c3.643,0,6.642-2.979,6.642-6.621c0-3.639-2.999-6.662-6.642-6.662
		c-3.641,0-6.618,3.023-6.618,6.662C119.083,140.338,122.061,143.316,125.701,143.316"/>
	<path fill="#12515A" d="M137.446,128.842c0-0.229,0.206-0.412,0.436-0.412h0.572l10.328,12.871h0.046v-12.207
		c0-0.229,0.184-0.436,0.436-0.436h0.802c0.228,0,0.435,0.207,0.435,0.436v15.412c0,0.23-0.207,0.412-0.435,0.412h-0.413
		l-10.512-13.123h-0.022v12.459c0,0.23-0.184,0.436-0.435,0.436h-0.802c-0.229,0-0.436-0.205-0.436-0.436V128.842z"/>
</g>
</svg>
