<?xml version="1.0" encoding="utf-8"?>
<!-- Generator: Adobe Illustrator 16.0.0, SVG Export Plug-In . SVG Version: 6.00 Build 0)  -->
<!DOCTYPE svg PUBLIC "-//W3C//DTD SVG 1.1//EN" "http://www.w3.org/Graphics/SVG/1.1/DTD/svg11.dtd">
<svg version="1.1" id="Layer_1" xmlns="http://www.w3.org/2000/svg" xmlns:xlink="http://www.w3.org/1999/xlink" x="0px" y="0px"
	 width="125px" height="125px" viewBox="0 0 125 125" enable-background="new 0 0 125 125" xml:space="preserve">
<g>
	<g>
		<path fill="#15525B" d="M95.333,116.255c-9.147,1.809-26.59,4.842-40.639,4.842c-20.431,0-44.715-6.605-46.623-5.653
			c-1.716,0.856-3.782,0.139-4.114-1.638c7.199-11.66,1.906,4.315,1.906-37.632c0-3.184,0.81-9.829,2.344-19.219
			c0.084-0.511-0.039-1.034-0.342-1.453c-0.303-0.423-0.759-0.704-1.27-0.788c-0.512-0.084-1.035,0.039-1.457,0.342
			c-0.419,0.302-0.703,0.759-0.787,1.271c-1.588,9.73-2.395,16.407-2.395,19.847c0,20.293,1.255,28.337,1.805,30.882l-3.43,5.145
			c-0.823,1.234-0.181,4.758,2.662,6.514c1.855,1.13,4.134,1.322,6.152,0.52c35.941,7.79,55.098,7.149,86.945,0.855
			c0.509-0.102,0.957-0.398,1.245-0.829c0.289-0.43,0.395-0.958,0.294-1.467c-0.101-0.507-0.399-0.955-0.829-1.243
			c-0.431-0.289-0.958-0.395-1.466-0.295H95.333z M95.333,116.255"/>
		<path fill="#15525B" d="M5.863,50.782h44.924c1.078,0,1.953-0.877,1.953-1.954c0-1.078-0.875-1.954-1.953-1.954H5.863
			c-1.078,0-1.953-0.874-1.953-1.952s0.875-1.954,1.953-1.954h15.626c1.078,0,1.953-0.874,1.953-1.952
			c0-1.079-0.875-1.953-1.953-1.953H5.863c-1.078,0-1.953-0.876-1.953-1.954c0-1.077,0.875-1.953,1.953-1.953h83.989
			c1.078,0,1.953-0.874,1.953-1.953c0-1.078-0.875-1.952-1.953-1.952H5.863c-5.079,0-7.714,6.025-4.364,9.766
			C-1.85,44.752,0.782,50.782,5.863,50.782L5.863,50.782z M5.863,50.782"/>
	</g>
	<path fill="#15525B" d="M21.911,26.715C35.491,12.006,47.134,3.904,54.693,3.904c7.56,0,19.203,8.102,32.783,22.811
		c0.732,0.792,1.967,0.842,2.761,0.11c0.792-0.732,0.842-1.97,0.109-2.762C80.21,13.083,65.796-0.003,54.693-0.003
		c-11.102,0-25.517,13.086-35.653,24.066c-0.732,0.792-0.683,2.029,0.109,2.762C19.944,27.557,21.179,27.507,21.911,26.715
		L21.911,26.715z M21.911,26.715"/>
	<path fill="#15525B" d="M37.115,39.063c-1.078,0-1.953,0.874-1.953,1.953c0,1.078,0.875,1.952,1.953,1.952h17.579
		c1.078,0,1.954-0.874,1.954-1.952c0-1.079-0.875-1.953-1.954-1.953H37.115z M37.115,39.063"/>
	<path fill="#15525B" d="M31.255,41.016c0,1.078-0.875,1.952-1.953,1.952s-1.953-0.874-1.953-1.952c0-1.079,0.875-1.953,1.953-1.953
		S31.255,39.937,31.255,41.016L31.255,41.016z M31.255,41.016"/>
	<path fill="#15525B" d="M46.881,17.577c0,1.077-0.875,1.952-1.953,1.952c-1.079,0-1.954-0.875-1.954-1.952
		c0-1.079,0.875-1.954,1.954-1.954C46.006,15.623,46.881,16.498,46.881,17.577L46.881,17.577z M46.881,17.577"/>
	<path fill="#15525B" d="M52.74,9.764c0,1.079-0.875,1.953-1.953,1.953s-1.953-0.874-1.953-1.953c0-1.078,0.875-1.952,1.953-1.952
		S52.74,8.686,52.74,9.764L52.74,9.764z M52.74,9.764"/>
	<path fill="#15525B" d="M56.647,15.623c0,1.078-0.875,1.954-1.954,1.954s-1.953-0.876-1.953-1.954c0-1.079,0.875-1.954,1.953-1.954
		S56.647,14.544,56.647,15.623L56.647,15.623z M56.647,15.623"/>
	<path fill="#15525B" d="M62.506,11.717c0,1.077-0.875,1.952-1.953,1.952S58.6,12.794,58.6,11.717c0-1.078,0.875-1.953,1.953-1.953
		S62.506,10.639,62.506,11.717L62.506,11.717z M62.506,11.717"/>
	<path fill="#15525B" d="M66.413,19.529c0,1.078-0.875,1.953-1.953,1.953s-1.953-0.875-1.953-1.953s0.875-1.952,1.953-1.952
		S66.413,18.451,66.413,19.529L66.413,19.529z M66.413,19.529"/>
	<path fill="#15525B" d="M74.226,25.389c0,1.079-0.875,1.955-1.953,1.955s-1.953-0.876-1.953-1.955c0-1.077,0.875-1.953,1.953-1.953
		S74.226,24.312,74.226,25.389L74.226,25.389z M74.226,25.389"/>
	<path fill="#15525B" d="M60.553,25.389c0,1.079-0.875,1.955-1.953,1.955s-1.953-0.876-1.953-1.955c0-1.077,0.875-1.953,1.953-1.953
		S60.553,24.312,60.553,25.389L60.553,25.389z M60.553,25.389"/>
	<path fill="#15525B" d="M50.787,25.389c0,1.079-0.875,1.955-1.953,1.955s-1.953-0.876-1.953-1.955c0-1.077,0.875-1.953,1.953-1.953
		S50.787,24.312,50.787,25.389L50.787,25.389z M50.787,25.389"/>
	<g>
		<path fill="#15525B" d="M39.068,25.389c0,1.079-0.875,1.955-1.953,1.955s-1.953-0.876-1.953-1.955
			c0-1.077,0.875-1.953,1.953-1.953S39.068,24.312,39.068,25.389L39.068,25.389z M39.068,25.389"/>
		<path fill="#15525B" d="M125,66.405c-0.007-0.953-0.7-1.762-1.64-1.915c1.023-2.495,1.579-5.156,1.64-7.851
			c-0.007-1.07-0.871-1.936-1.942-1.941c-0.877,0.016-1.755,0.088-2.623,0.22c0.901-2.63,0.924-6.271,0.605-7.555
			c0.122-0.473,0.039-0.068,0.063-10.255c0-1.077-0.875-1.953-1.953-1.953s-1.953,0.876-1.953,1.953v8.655
			c-1.317-0.006-2.629,0.139-3.911,0.432c-0.072-4.576-2.736-8.359-3.903-9.797v-9.055c0-1.079-0.875-1.955-1.953-1.955
			c-1.079,0-1.954,0.876-1.954,1.955v9.055c-1.167,1.438-3.833,5.223-3.903,9.803c-1.282-0.293-2.594-0.438-3.91-0.434v-8.659
			c0-1.077-0.875-1.953-1.953-1.953s-1.953,0.876-1.953,1.953c0.024,10.153-0.055,9.786,0.062,10.247
			c-0.248,0.968-0.422,4.581,0.598,7.56c-1.769-0.258-3.717-0.646-4.409,0.967c-0.787,0.422-1.544,0.898-2.265,1.426
			c-0.418-2.742-2.083-5.981-2.961-6.974c-0.111-0.475,0.003-0.078-4.694-9.117c-0.5-0.955-1.68-1.326-2.636-0.826
			s-1.326,1.68-0.826,2.637l4.009,7.671c-1.168,0.604-2.265,1.34-3.266,2.192c-2.183-4.022-6.297-6.141-7.995-6.875l-4.196-8.025
			c-0.502-0.951-1.678-1.317-2.632-0.82c-0.953,0.5-1.324,1.675-0.831,2.629l4.195,8.025c-0.366,1.814-0.977,6.403,1.081,10.493
			c-1.272,0.336-2.502,0.814-3.665,1.43l-4.011-7.673c-0.499-0.956-1.679-1.325-2.636-0.827c-0.957,0.5-1.327,1.68-0.827,2.636
			c4.756,9.05,4.477,8.688,4.8,9.05c0.242,1.035,1.8,4.306,4.032,6.425c-0.831,0.284-1.642,0.626-2.427,1.022
			c-0.945,0.502-1.311,1.67-0.822,2.622c1.304,2.361,3.029,4.461,5.09,6.199c-0.762,0.57-1.002,1.608-0.567,2.455
			c1.306,2.363,3.035,4.469,5.099,6.208c-0.765,0.569-1.005,1.609-0.569,2.458c1.301,2.357,3.024,4.455,5.082,6.191
			c-0.76,0.572-0.998,1.607-0.564,2.454c0.147,0.285,3.67,7,10.192,9.045c3.793,1.188,8.046,0.604,11.739-0.816
			c9.512,18.199,8.8,17.022,9.314,17.411c0.441,0.334,1.003,0.465,1.547,0.359c0.544-0.104,1.017-0.436,1.301-0.91
			c0.607-1.004,0.112-0.953,0.281-20.669c2.641-0.305,7.382-1.323,10.772-4.714c4.834-4.834,4.845-12.415,4.843-12.736
			c-0.007-0.951-0.698-1.758-1.637-1.913c1.021-2.491,1.576-5.149,1.637-7.841c-0.007-0.955-0.703-1.765-1.646-1.916
			C124.38,71.771,124.938,69.104,125,66.405L125,66.405z M105.274,70.12c-2.332-2.75-5.612-4.332-9.115-5.117
			c-1.363-2.085-1.954-4.508-2.208-6.205C100.676,59.805,104.265,63.388,105.274,70.12L105.274,70.12z M105.275,79.898
			c-2.325-2.743-5.601-4.332-9.109-5.119c-1.367-2.089-1.961-4.517-2.215-6.216C100.685,69.571,104.271,73.163,105.275,79.898
			L105.275,79.898z M105.273,89.65c-2.326-2.744-5.608-4.332-9.122-5.116c-1.361-2.085-1.95-4.507-2.201-6.198
			C100.795,79.348,104.278,83.051,105.273,89.65L105.273,89.65z M78.771,57.054c1.04-1.378,2.634-2.369,3.783-2.952
			c2.285,4.304,1.077,6.073,1.116,7.011c-1.537,1.826-2.601,4.005-3.094,6.341l-1.954-3.738
			C79.066,61.521,79.116,59.266,78.771,57.054L78.771,57.054z M69.486,50.45c4.213,2.463,5.945,5.766,5.561,10.639
			C70.836,58.627,69.104,55.322,69.486,50.45L69.486,50.45z M65.023,63.269c1.138-0.61,2.865-1.356,4.592-1.419
			c1.616,1.541,3.494,2.784,5.544,3.672l1.961,3.753c-2.202-0.934-4.601-1.308-6.982-1.089
			C69.428,67.647,67.254,67.61,65.023,63.269L65.023,63.269z M75.124,90.336c2.064-0.713,5.426-1.493,8.551-0.514
			c0.495,0.158,1.032,0.111,1.493-0.128c0.46-0.241,0.808-0.654,0.962-1.148c0.155-0.496,0.107-1.032-0.135-1.493
			c-0.241-0.458-0.656-0.805-1.152-0.957c-3.393-1.064-6.838-0.625-9.405,0.06c-2.183-1.218-3.835-3.101-4.847-4.489
			c2.635-0.918,5.795-1.373,8.555-0.508c1.029,0.322,2.125-0.249,2.449-1.277c0.323-1.031-0.25-2.127-1.279-2.449
			c-3.396-1.066-6.846-0.627-9.415,0.061c-2.177-1.219-3.824-3.097-4.833-4.483c2.055-0.715,5.407-1.494,8.556-0.506
			c4.947,1.549,7.863,7.054,7.891,7.11c0.031,0.059,0.065,0.117,0.102,0.172c1.705,2.741,1.802,4.834,3.71,4.834
			c0.683-0.002,1.314-0.359,1.667-0.943c0.354-0.584,0.378-1.311,0.063-1.915c-0.608-1.53-5.414-8.082-3.404-14.498
			c1.035-3.305,3.835-5.701,5.596-6.938c0.27,1.428,0.687,2.824,1.243,4.167c-0.939,0.153-1.632,0.96-1.639,1.913
			c0.062,2.699,0.619,5.365,1.644,7.863c-0.942,0.151-1.637,0.962-1.644,1.915c0.061,2.691,0.616,5.35,1.635,7.841
			c-0.938,0.155-1.629,0.964-1.635,1.915c-0.001,0.273,0.009,5.85,3.028,10.48c-3.934-2.557-8.28-2.864-12.94-1.615
			C77.772,93.588,76.132,91.719,75.124,90.336L75.124,90.336z M79.638,98.978c2.71-0.944,5.818-1.368,8.556-0.51
			c3.129,0.982,5.445,3.547,6.732,5.313C88.543,105.997,83.672,104.507,79.638,98.978L79.638,98.978z M93.952,88.098
			c6.727,1.008,10.312,4.587,11.322,11.322c-6.727-1.01-10.313-4.59-11.322-11.324V88.098z M105.478,115.095
			c-5.798-11.027-5.963-11.787-7.793-14.152c2.824,1.625,5.869,2.226,7.793,2.446V115.095z M105.478,60.601
			c-1.52-1.848-3.473-3.289-5.686-4.199c-0.382-0.81-2.289-1.846-2.256-6.728c1.291-0.012,3.166,0.125,4.728,0.869
			c0.719,2.115,1.807,4.087,3.214,5.823V60.601z M107.431,52.386c-2.593-4.134-2.596-7.865,0-12.005
			C110.022,44.513,110.028,48.244,107.431,52.386L107.431,52.386z M109.384,56.368c1.409-1.74,2.498-3.715,3.217-5.834
			c1.556-0.737,3.422-0.874,4.711-0.864c0.049,4.937-1.832,5.838-2.252,6.731c-2.208,0.906-4.157,2.344-5.677,4.185V56.368z
			 M109.577,99.42c1.007-6.728,4.588-10.314,11.322-11.322C119.892,94.822,116.311,98.41,109.577,99.42L109.577,99.42z
			 M118.7,84.531c-3.526,0.789-6.803,2.383-9.12,5.119c0.992-6.6,4.465-10.281,11.322-11.309
			C120.648,80.033,120.058,82.449,118.7,84.531L118.7,84.531z M118.684,74.781c-3.474,0.779-6.769,2.355-9.106,5.117
			c0.994-6.663,4.511-10.315,11.325-11.335c-0.255,1.699-0.85,4.129-2.219,6.22V74.781z M118.689,65.005
			c-3.519,0.788-6.791,2.375-9.112,5.113c1.008-6.725,4.59-10.313,11.324-11.32C120.647,60.495,120.056,62.92,118.689,65.005
			L118.689,65.005z M118.689,65.005"/>
	</g>
</g>
</svg>
