<?xml version="1.0" encoding="utf-8"?>
<!-- Generator: Adobe Illustrator 16.0.0, SVG Export Plug-In . SVG Version: 6.00 Build 0)  -->
<!DOCTYPE svg PUBLIC "-//W3C//DTD SVG 1.1//EN" "http://www.w3.org/Graphics/SVG/1.1/DTD/svg11.dtd">
<svg version="1.1" id="Layer_1" xmlns="http://www.w3.org/2000/svg" xmlns:xlink="http://www.w3.org/1999/xlink" x="0px" y="0px"
	 width="125px" height="125px" viewBox="0 0 125 125" enable-background="new 0 0 125 125" xml:space="preserve">
<path fill="#15525B" d="M121.812,3.186c-0.439-0.439-1.036-0.686-1.657-0.686L62.5,2.502c-1.295,0-2.344,1.051-2.344,2.344v6.703
	L37.94,17.502c-1.25,0.334-1.992,1.619-1.657,2.87l11.514,42.972l-9.96,9.96c-1.268-1.851-3.396-3.068-5.804-3.068h-22.5
	c-3.877,0-7.031,3.154-7.031,7.03v38.203c0,3.877,3.154,7.031,7.031,7.031h22.5c3.293,0,6.064-2.277,6.823-5.34l2.786,2.431
	c2.152,1.876,4.908,2.909,7.763,2.909h70.75c1.294,0,2.344-1.05,2.344-2.344V4.844C122.498,4.222,122.251,3.625,121.812,3.186z
	 M60.156,55.611l-4.274-15.828c1.786-0.922,3.247-2.302,4.274-3.949V55.611z M60.156,16.401v8.685l-1.57,0.421
	c-0.601,0.161-1.112,0.554-1.424,1.093c-0.311,0.537-0.395,1.178-0.233,1.777c0.9,3.361-1.101,6.829-4.462,7.729
	c-0.602,0.161-1.114,0.554-1.425,1.095c-0.311,0.539-0.394,1.18-0.231,1.78l9.136,33.829h-4.704l-2.424-9.482
	c-0.077-0.303-0.212-0.582-0.393-0.823L41.417,21.423L60.156,16.401z M32.032,117.813H9.533c-1.293,0-2.344-1.051-2.344-2.344
	V77.266c0-1.291,1.051-2.343,2.344-2.343h8.906v26.999c0,1.294,1.049,2.344,2.344,2.344c1.293,0,2.343-1.05,2.343-2.344V74.923
	h8.906c1.292,0,2.344,1.052,2.344,2.343v38.203C34.375,116.762,33.324,117.813,32.032,117.813z M49.405,117.813
	c-1.722,0-3.384-0.623-4.682-1.755l-5.66-4.937V78.706l10.232-10.232l1.855,7.261c0.266,1.037,1.2,1.764,2.271,1.764L99.5,77.5
	c1.81,0,3.281,1.473,3.281,3.281c0,1.81-1.472,3.281-3.281,3.281H75.89c-1.295,0-2.344,1.051-2.344,2.345s1.049,2.343,2.344,2.343
	h30.946c1.81,0,3.281,1.473,3.281,3.281c0,1.81-1.472,3.281-3.281,3.281H75.89c-1.295,0-2.344,1.05-2.344,2.344
	c0,1.295,1.049,2.344,2.344,2.344h25.932c1.81,0,3.281,1.472,3.281,3.281s-1.471,3.281-3.281,3.281H75.89
	c-1.295,0-2.344,1.049-2.344,2.344c0,1.294,1.049,2.344,2.344,2.344h17.938c1.809,0,3.281,1.471,3.281,3.281
	c0,1.81-1.473,3.281-3.281,3.281H49.405L49.405,117.813z M117.811,117.813h-16.724c0.454-1.002,0.71-2.111,0.71-3.281
	s-0.256-2.279-0.71-3.281h0.735c4.395,0,7.969-3.574,7.969-7.969c0-1.281-0.306-2.492-0.846-3.566c3.374-0.927,5.86-4.02,5.86-7.684
	c0-1.777-0.585-3.42-1.573-4.747V57.58c0-1.295-1.049-2.344-2.344-2.344c-1.294,0-2.344,1.049-2.344,2.344v26.67
	c-0.551-0.121-1.121-0.188-1.708-0.188h-0.077c0.455-1.001,0.71-2.111,0.71-3.281c0-4.394-3.575-7.968-7.969-7.968h-3.768
	c4.001-1.716,6.811-5.692,6.811-10.313c0-6.186-5.031-11.217-11.216-11.217c-6.186,0-11.217,5.031-11.217,11.217
	c0,4.621,2.81,8.598,6.811,10.313H74.11V28.248c4.187-0.912,7.49-4.215,8.402-8.402h17.63c0.912,4.188,4.216,7.49,8.403,8.402v7.287
	c0,1.295,1.05,2.344,2.344,2.344s2.343-1.049,2.343-2.344v-9.378c0-1.295-1.049-2.345-2.343-2.345c-3.479,0-6.312-2.831-6.312-6.311
	c0-1.294-1.049-2.344-2.343-2.344H80.42c-1.294,0-2.344,1.05-2.344,2.344c0,3.479-2.831,6.311-6.311,6.311
	c-1.294,0-2.344,1.05-2.344,2.345v46.656h-4.579V7.19l52.967-0.003V117.813L117.811,117.813z M91.328,69.029
	c-3.601,0-6.529-2.93-6.529-6.529c0-3.601,2.929-6.529,6.529-6.529c3.6,0,6.528,2.929,6.528,6.529
	C97.856,66.1,94.927,69.029,91.328,69.029z"/>
</svg>
