<?xml version="1.0" encoding="utf-8"?>
<!-- Generator: Adobe Illustrator 16.0.0, SVG Export Plug-In . SVG Version: 6.00 Build 0)  -->
<!DOCTYPE svg PUBLIC "-//W3C//DTD SVG 1.1//EN" "http://www.w3.org/Graphics/SVG/1.1/DTD/svg11.dtd">
<svg version="1.1" id="Layer_1" xmlns="http://www.w3.org/2000/svg" xmlns:xlink="http://www.w3.org/1999/xlink" x="0px" y="0px"
	 width="125px" height="125px" viewBox="0 0 125 125" enable-background="new 0 0 125 125" xml:space="preserve">
<g>
	<g>
		<path fill="#15525B" d="M52.057,62.53c-2.008,3.068-4.21,8.259-3.813,12.788c0.347,3.945,2.734,7.719,6.9,10.911
			c1.926,1.477,3.835,2.536,5.132,3.179c-0.347,0.973-0.73,1.934-1.155,2.882c-0.414,0.923,0,2.007,0.922,2.419
			c0.904,0.406,2.001,0.014,2.42-0.922c0.588-1.311,1.107-2.646,1.559-4.001c3.655-1.532,9.277-4.792,11.657-10.938
			c1.825-4.711,1.43-10.299-1.116-15.734c-2.585-5.521-7.242-10.422-13.111-13.795c-0.89-0.511-1.959-0.523-2.861-0.031
			c-0.898,0.492-1.465,1.393-1.514,2.414c-0.083,1.682-0.425,3.285-1.015,4.77C54.994,59.157,53.577,60.206,52.057,62.53
			L52.057,62.53z M59.465,57.824c0.595-1.494,0.986-3.078,1.172-4.727c4.745,2.965,8.489,7.037,10.611,11.568
			c2.116,4.521,2.479,9.088,1.018,12.858c-0.722,1.864-2.537,5.022-6.969,7.569c0.572-2.703,0.863-5.508,0.92-8.269l3.293-3.886
			c0.654-0.771,0.558-1.927-0.213-2.582c-0.772-0.652-1.928-0.558-2.582,0.215l-0.76,0.896c-0.272-2.424-0.752-4.827-1.44-7.201
			c-0.281-0.973-1.297-1.531-2.268-1.249c-0.97,0.282-1.53,1.297-1.249,2.269c0.969,3.344,1.488,6.756,1.555,10.188
			c-1.125-1.29-2.388-2.46-3.771-3.481c-0.813-0.6-1.96-0.429-2.561,0.386c-0.601,0.813-0.428,1.961,0.385,2.561
			c1.4,1.034,2.656,2.244,3.737,3.599c0.705,0.884,1.332,1.837,1.878,2.83c-0.2,1.512-0.491,3.005-0.864,4.48
			c-1.094-0.574-2.542-1.418-3.986-2.525c-3.378-2.589-5.221-5.391-5.479-8.326c-0.296-3.365,1.408-7.68,3.229-10.463
			C56.741,62.06,58.185,61.042,59.465,57.824L59.465,57.824z M110.458,17.617l-1.605-5.026c-1.005-3.15-3.902-5.267-7.209-5.267
			H79.578C79.83,3.383,76.85-0.002,72.865,0H52.135c-3.957-0.006-7.002,3.411-6.713,7.324H23.356c-3.308,0-6.204,2.116-7.21,5.267
			l-1.605,5.026c-0.358,1.126-0.157,2.367,0.54,3.32c0.698,0.953,1.818,1.523,3,1.523h3.104l3.229,93.699
			c0.172,4.956,4.19,8.84,9.149,8.84h57.872c4.959,0,8.977-3.884,9.149-8.841l0.938-27.218c0.035-1.01-0.756-1.857-1.766-1.893
			c-1.003-0.033-1.859,0.756-1.893,1.767l-0.938,27.218c-0.103,2.974-2.514,5.305-5.489,5.305h-5.677l3.531-98.877h10.859
			l-2.002,57.748c-0.036,1.011,0.755,1.859,1.766,1.893c0.021,0.002,0.043,0.002,0.064,0.002c0.982,0,1.794-0.778,1.829-1.768
			l2.008-57.875h3.104c1.181,0,2.303-0.57,3-1.523S110.817,18.743,110.458,17.617L110.458,17.617z M52.135,3.662h20.729
			c1.908-0.016,3.318,1.783,3.051,3.662H49.084C48.822,5.425,50.204,3.662,52.135,3.662L52.135,3.662z M33.564,121.338
			c-2.976,0-5.387-2.331-5.49-5.305l-3.226-93.572h10.859l3.533,98.877H33.564z M106.961,18.777
			c-0.017,0.021-0.028,0.021-0.043,0.021H55.881c-1.012,0-1.831,0.82-1.831,1.83c0,1.012,0.819,1.832,1.831,1.832h29.746
			l-3.533,98.877H42.905l-3.532-98.877h7.916c1.011,0,1.831-0.82,1.831-1.832c0-1.01-0.82-1.83-1.831-1.83H18.082
			c-0.015,0-0.026,0-0.043-0.021c-0.016-0.022-0.011-0.031-0.007-0.047l1.604-5.025c0.519-1.627,2.014-2.719,3.721-2.719h78.288
			c1.706,0,3.202,1.092,3.721,2.719l1.604,5.025C106.973,18.746,106.977,18.755,106.961,18.777L106.961,18.777z M106.961,18.777"/>
	</g>
</g>
</svg>
