<?xml version="1.0" encoding="utf-8"?>
<!-- Generator: Adobe Illustrator 16.0.0, SVG Export Plug-In . SVG Version: 6.00 Build 0)  -->
<!DOCTYPE svg PUBLIC "-//W3C//DTD SVG 1.1//EN" "http://www.w3.org/Graphics/SVG/1.1/DTD/svg11.dtd">
<svg version="1.1" id="Layer_1" xmlns="http://www.w3.org/2000/svg" xmlns:xlink="http://www.w3.org/1999/xlink" x="0px" y="0px"
	 width="125px" height="125px" viewBox="0 0 125 125" enable-background="new 0 0 125 125" xml:space="preserve">
<g>
	<path fill="#15525B" d="M79.165,120.832H14.583v-25c0-1.149-0.933-2.082-2.084-2.082c-1.15,0-2.083,0.933-2.083,2.082v27.084
		c0,1.15,0.933,2.084,2.083,2.084h66.666c1.151,0,2.084-0.934,2.084-2.084S80.316,120.832,79.165,120.832L79.165,120.832z
		 M79.165,120.832"/>
	<path fill="#15525B" d="M102.083,16.666h4.166c4.602,0,8.334-3.731,8.334-8.334c0-4.602-3.732-8.332-8.334-8.332H33.333
		c-5.75,0.008-10.41,4.666-10.417,10.416v1.004c-0.038,4.301-1.081,8.533-3.047,12.357c-6.2,12.459-9.435,26.184-9.453,40.102V87.5
		c0,1.149,0.933,2.082,2.083,2.082c1.151,0,2.084-0.933,2.084-2.082V63.879c0.016-13.271,3.1-26.36,9.014-38.242
		c2.256-4.4,3.449-9.27,3.486-14.217v-1.004c0-3.451,2.798-6.25,6.25-6.25h65.702c-0.734,1.266-1.121,2.703-1.12,4.166v9.881
		c-8.175,13.828-12.492,29.6-12.5,45.666v59.037c0,1.15,0.934,2.084,2.084,2.084h25c1.151,0,2.084-0.934,2.084-2.084v-37.5
		c0-1.15-0.934-2.084-2.084-2.084c-1.15,0-2.084,0.934-2.084,2.084v31.876l-8.332-9.722v-9.654c0-1.15-0.933-2.084-2.084-2.084
		c-1.15,0-2.084,0.934-2.084,2.084v9.648l-8.332,9.728V63.879c0.008-12.732,2.856-25.303,8.332-36.797v20.834
		c0,1.15,0.934,2.084,2.084,2.084c1.151,0,2.084-0.934,2.084-2.084V27.082c5.479,11.496,8.327,24.068,8.332,36.803v13.197
		c0,1.15,0.934,2.084,2.084,2.084c1.151,0,2.084-0.934,2.084-2.084V63.879c-0.008-16.066-4.324-31.838-12.5-45.666V16.666z
		 M99.999,111.535l7.971,9.297H92.029L99.999,111.535z M106.249,4.166c2.302,0,4.166,1.865,4.166,4.166
		c0,2.303-1.864,4.168-4.166,4.168h-4.166V8.332C102.083,6.031,103.948,4.166,106.249,4.166L106.249,4.166z M106.249,4.166"/>
	<path fill="#15525B" d="M99.999,58.332c-1.15,0-2.084,0.934-2.084,2.084v25c0,1.15,0.934,2.084,2.084,2.084
		c1.151,0,2.084-0.934,2.084-2.084v-25C102.083,59.266,101.15,58.332,99.999,58.332L99.999,58.332z M99.999,58.332"/>
	<path fill="#15525B" d="M33.439,24.342l-4.167,12.5c-0.212,0.635-0.104,1.334,0.287,1.876c0.393,0.544,1.021,0.864,1.69,0.864
		h43.75c0.897,0,1.692-0.574,1.975-1.425l4.168-12.5c0.211-0.635,0.105-1.331-0.287-1.876c-0.391-0.542-1.02-0.865-1.69-0.865
		H35.416C34.52,22.916,33.722,23.49,33.439,24.342L33.439,24.342z M76.275,27.082l-2.777,8.334H34.138l2.779-8.334H76.275z
		 M76.275,27.082"/>
	<path fill="#15525B" d="M39.583,43.75c-1.15,0-2.084,0.933-2.084,2.082c0,1.15,0.934,2.084,2.084,2.084h25
		c1.15,0,2.082-0.934,2.082-2.084c0-1.149-0.932-2.082-2.082-2.082H39.583z M39.583,43.75"/>
	<path fill="#15525B" d="M70.833,18.75c1.15,0,2.082-0.934,2.082-2.084s-0.932-2.084-2.082-2.084h-25
		c-1.15,0-2.084,0.934-2.084,2.084s0.934,2.084,2.084,2.084H70.833z M70.833,18.75"/>
</g>
</svg>
