<?xml version="1.0" encoding="utf-8"?>
<!-- Generator: Adobe Illustrator 16.0.0, SVG Export Plug-In . SVG Version: 6.00 Build 0)  -->
<!DOCTYPE svg PUBLIC "-//W3C//DTD SVG 1.1//EN" "http://www.w3.org/Graphics/SVG/1.1/DTD/svg11.dtd">
<svg version="1.1" id="Layer_1" xmlns="http://www.w3.org/2000/svg" xmlns:xlink="http://www.w3.org/1999/xlink" x="0px" y="0px"
	 width="125px" height="125px" viewBox="0 0 125 125" enable-background="new 0 0 125 125" xml:space="preserve">
<g>
	<path fill="#15525B" d="M120.5,50.5h-2.754c-3.867-7.51-3.867-16.491,0-24h2.754c0.77,0,1.469-0.441,1.803-1.135
		c0.332-0.691,0.24-1.516-0.24-2.115c-4.123-5.152-4.123-12.35,0-17.502c0.48-0.6,0.572-1.422,0.24-2.115
		C121.969,2.94,121.27,2.5,120.5,2.5h-100c-4.412,0-8,3.588-8,8v8c0,2.311,1,4.379,2.572,5.841C9.982,27.021,6.5,32.358,6.5,38.5
		c0,4.779,2.118,9.065,5.453,12H10.5c-4.412,0-8,3.588-8,8c0,2.4,1.085,4.532,2.765,6c-1.68,1.467-2.765,3.6-2.765,6v8
		c0,4.411,3.588,8,8,8h0.051c-4.875,3.65-8.051,9.453-8.051,16c0,11.027,8.973,20,20,20h98c0.738,0,1.416-0.406,1.764-1.057
		s0.309-1.439-0.1-2.053c-6.842-10.262-6.842-23.521,0-33.781c0.408-0.613,0.447-1.402,0.1-2.053S121.238,82.5,120.5,82.5h-6.94
		c-3.392-4.838-3.392-11.162,0-16h6.94c1.105,0,2-0.896,2-2v-12C122.5,51.395,121.605,50.5,120.5,50.5z M20.5,22.5
		c-2.205,0-4-1.794-4-4v-8c0-2.207,1.795-4,4-4h96.355c-2.524,5.045-2.524,10.953,0,16H20.5z M10.5,38.5c0-6.617,5.383-12,12-12
		h90.785c-3.296,7.635-3.296,16.365,0,24H22.5C15.883,50.5,10.5,45.117,10.5,38.5z M116.988,118.5H22.5c-8.822,0-16-7.178-16-16
		s7.178-16,16-16h2h92.488C111.713,96.529,111.713,108.471,116.988,118.5z M108.874,82.5H24.5h-2h-12c-2.205,0-4-1.794-4-4v-8
		c0-2.207,1.795-4,4-4h98.374C106.348,71.548,106.348,77.451,108.874,82.5z M118.5,62.5h-108c-2.205,0-4-1.794-4-4
		c0-2.207,1.795-4,4-4h108V62.5z"/>
	<path fill="#15525B" d="M10.5,102.5c0,6.617,5.383,12,12,12h88v-4h-88v-16h88v-4h-88C15.883,90.5,10.5,95.883,10.5,102.5z
		 M18.5,109.387c-2.379-1.387-4-3.939-4-6.887c0-2.948,1.621-5.5,4-6.887V109.387z"/>
	<path fill="#15525B" d="M10.5,70.5v8c0,1.104,0.895,2,2,2h92v-4h-90v-4h90v-4h-92C11.395,68.5,10.5,69.395,10.5,70.5z"/>
	<path fill="#15525B" d="M18.5,10.5v8c0,1.104,0.895,2,2,2h92v-4h-90v-4h90v-4h-92C19.395,8.5,18.5,9.395,18.5,10.5z"/>
</g>
</svg>
