<?xml version="1.0" encoding="utf-8"?>
<!-- Generator: Adobe Illustrator 16.0.0, SVG Export Plug-In . SVG Version: 6.00 Build 0)  -->
<!DOCTYPE svg PUBLIC "-//W3C//DTD SVG 1.1//EN" "http://www.w3.org/Graphics/SVG/1.1/DTD/svg11.dtd">
<svg version="1.1" id="Layer_1" xmlns="http://www.w3.org/2000/svg" xmlns:xlink="http://www.w3.org/1999/xlink" x="0px" y="0px"
	 width="80px" height="80px" viewBox="0 0 80 80" enable-background="new 0 0 80 80" xml:space="preserve">
<g>
	<g>
		<path fill-rule="evenodd" clip-rule="evenodd" fill="#FFFFFF" d="M48.066,32.917h4.9c0.564,0,1.014-0.449,1.014-1.004v-4.891
			c0-0.563-0.449-1.012-1.014-1.012h-4.9c-0.564,0-1.011,0.449-1.011,1.012v4.891C47.055,32.468,47.501,32.917,48.066,32.917z"/>
		<path fill-rule="evenodd" clip-rule="evenodd" fill="#FFFFFF" d="M51.071,40.048c0,6.07-4.943,11-11.026,11
			c-6.075,0-11.031-4.93-11.031-11c0-1.01,0.138-1.98,0.397-2.91h-3.4v15.758c0,0.564,0.456,1.023,1.011,1.023h26.027
			c0.567,0,1.016-0.459,1.016-1.023V37.138H50.67C50.924,38.067,51.071,39.038,51.071,40.048z"/>
		<path fill-rule="evenodd" clip-rule="evenodd" fill="#FFFFFF" d="M40.044,46.991c3.85,0,6.973-3.105,6.973-6.943
			c0-3.846-3.123-6.955-6.973-6.955c-3.852,0-6.973,3.109-6.973,6.955C33.072,43.886,36.193,46.991,40.044,46.991z"/>
		<path fill-rule="evenodd" clip-rule="evenodd" fill="#FFFFFF" d="M40.329,10.536h-0.678c-16.38,0.178-29.608,13.295-29.608,29.471
			c0,16.256,13.414,29.457,29.954,29.457c16.537,0,29.961-13.201,29.961-29.457C69.958,23.831,56.719,10.714,40.329,10.536z
			 M58.118,53.825c0,2.375-1.917,4.307-4.305,4.307H26.189c-2.388,0-4.317-1.932-4.317-4.307V26.179c0-2.379,1.93-4.299,4.317-4.299
			h27.624c2.388,0,4.305,1.92,4.305,4.299V53.825z"/>
	</g>
</g>
</svg>
