<?xml version="1.0" encoding="utf-8"?>
<!-- Generator: Adobe Illustrator 16.0.0, SVG Export Plug-In . SVG Version: 6.00 Build 0)  -->
<!DOCTYPE svg PUBLIC "-//W3C//DTD SVG 1.1//EN" "http://www.w3.org/Graphics/SVG/1.1/DTD/svg11.dtd">
<svg version="1.1" id="Layer_1" xmlns="http://www.w3.org/2000/svg" xmlns:xlink="http://www.w3.org/1999/xlink" x="0px" y="0px"
	 width="80px" height="80px" viewBox="0 0 80 80" enable-background="new 0 0 80 80" xml:space="preserve">
<path fill-rule="evenodd" clip-rule="evenodd" fill="#FFFFFF" d="M40.335,10.531h-0.69c-16.308,0.186-29.457,13.158-29.607,29.206
	v0.524c0.15,16.15,13.497,29.207,29.94,29.207c16.564,0,29.983-13.201,29.983-29.471C69.962,23.824,56.716,10.717,40.335,10.531z
	 M50.783,27.539h-3.897c-3.078,0-3.685,1.471-3.685,3.586v4.693h7.322l-0.951,7.373H43.2v18.885h-7.622V43.191h-6.391v-7.373h6.391
	v-5.434c0-6.291,3.869-9.721,9.512-9.721c2.701,0,5.026,0.199,5.692,0.293V27.539z"/>
</svg>
