<?xml version="1.0" encoding="utf-8"?>
<!-- Generator: Adobe Illustrator 16.0.0, SVG Export Plug-In . SVG Version: 6.00 Build 0)  -->
<!DOCTYPE svg PUBLIC "-//W3C//DTD SVG 1.1//EN" "http://www.w3.org/Graphics/SVG/1.1/DTD/svg11.dtd">
<svg version="1.1" id="Layer_1" xmlns="http://www.w3.org/2000/svg" xmlns:xlink="http://www.w3.org/1999/xlink" x="0px" y="0px"
	 width="80px" height="80px" viewBox="0 0 80 80" enable-background="new 0 0 80 80" xml:space="preserve">
<path fill-rule="evenodd" clip-rule="evenodd" fill="#FFFFFF" d="M40.321,10.531h-0.675C23.26,10.707,10.039,23.824,10.039,40
	c0,16.268,13.419,29.469,29.961,29.469c16.538,0,29.961-13.201,29.961-29.469C69.961,23.824,56.716,10.707,40.321,10.531z
	 M57.965,33.346c0.024,0.387,0.046,0.763,0.046,1.139c0,11.543-8.429,24.852-23.802,24.852c-4.72,0-9.121-1.439-12.816-3.922
	c0.656,0.082,1.319,0.115,1.992,0.115c3.921,0,7.53-1.389,10.39-3.732c-3.661-0.063-6.755-2.598-7.824-6.059
	c0.533,0.092,1.042,0.154,1.599,0.154c0.77,0,1.479-0.104,2.188-0.314c-3.828-0.791-6.705-4.326-6.705-8.563v-0.071
	c1.148,0.618,2.407,1.003,3.787,1.042c-2.243-1.553-3.733-4.221-3.733-7.258c0-1.605,0.436-3.108,1.143-4.401
	c4.134,5.288,10.293,8.772,17.229,9.136c-0.145-0.646-0.217-1.312-0.217-1.992c0-4.838,3.744-8.736,8.384-8.736
	c2.388,0,4.567,1.063,6.08,2.75c1.917-0.385,3.705-1.123,5.328-2.117c-0.637,2.036-1.963,3.756-3.69,4.854
	c1.688-0.212,3.304-0.689,4.804-1.399C61.033,30.604,59.605,32.126,57.965,33.346z"/>
</svg>
